<svg width="1274" height="1274" viewBox="0 0 1274 1274" fill="none" xmlns="http://www.w3.org/2000/svg">
<circle cx="637" cy="637" r="636" stroke="#030712" stroke-width="2"/>
<circle cx="637" cy="637" r="526" stroke="#1F2937" stroke-width="2"/>
<circle cx="637" cy="637" r="416" stroke="#374151" stroke-width="2"/>
<circle cx="637" cy="637" r="306" stroke="#4B5563" stroke-width="2"/>
<circle cx="637" cy="637" r="196" stroke="#6B7280" stroke-width="2"/>
<rect x="764" y="332" width="136" height="136" rx="25" fill="#1F2937"/>
<path d="M845.5 355.917H805C802.613 355.917 800.324 356.856 798.636 358.528C796.948 360.2 796 362.468 796 364.833V436.167C796 438.531 796.948 440.799 798.636 442.472C800.324 444.144 802.613 445.083 805 445.083H859C861.387 445.083 863.676 444.144 865.364 442.472C867.052 440.799 868 438.531 868 436.167V378.208L845.5 355.917Z" stroke="#94A3B8" stroke-width="2" stroke-linecap="round" stroke-linejoin="round"/>
<path d="M841 355.917V373.75C841 376.115 841.948 378.383 843.636 380.055C845.324 381.727 847.613 382.667 850 382.667H868" stroke="#94A3B8" stroke-width="2" stroke-linecap="round" stroke-linejoin="round"/>
<path d="M814 404.958H823" stroke="#94A3B8" stroke-width="2" stroke-linecap="round" stroke-linejoin="round"/>
<path d="M841 404.958H850" stroke="#94A3B8" stroke-width="2" stroke-linecap="round" stroke-linejoin="round"/>
<path d="M814 422.792H823" stroke="#94A3B8" stroke-width="2" stroke-linecap="round" stroke-linejoin="round"/>
<path d="M841 422.792H850" stroke="#94A3B8" stroke-width="2" stroke-linecap="round" stroke-linejoin="round"/>
<rect x="332" y="231" width="110" height="115.846" rx="25" fill="#1F2937"/>
<path d="M359.167 322.333H408.75C410.629 322.333 412.431 321.631 413.759 320.381C415.087 319.13 415.834 317.435 415.834 315.667V272.333L398.125 255.667H366.25C364.372 255.667 362.57 256.369 361.242 257.619C359.913 258.869 359.167 260.565 359.167 262.333V275.667" stroke="#94A3B8" stroke-width="2" stroke-linecap="round" stroke-linejoin="round"/>
<path d="M394.583 255.667V269C394.583 270.768 395.329 272.464 396.658 273.714C397.986 274.964 399.788 275.667 401.666 275.667H415.833" stroke="#94A3B8" stroke-width="2" stroke-linecap="round" stroke-linejoin="round"/>
<path d="M352.083 292.333V289H373.333V292.333" stroke="#94A3B8" stroke-width="2" stroke-linecap="round" stroke-linejoin="round"/>
<path d="M362.708 289V309" stroke="#94A3B8" stroke-width="2" stroke-linecap="round" stroke-linejoin="round"/>
<path d="M359.167 309H366.25" stroke="#94A3B8" stroke-width="2" stroke-linecap="round" stroke-linejoin="round"/>
<rect x="202" y="708" width="110" height="115.846" rx="25" fill="#1F2937"/>
<rect x="1116" y="531" width="93" height="93" rx="25" fill="#334155"/>
<rect x="112" y="354" width="93" height="93" rx="25" fill="#334155"/>
<rect x="986" y="942" width="93" height="93" rx="25" fill="#334155"/>
<rect x="211" y="942" width="93" height="93" rx="25" fill="#334155"/>
<path d="M288 801.833C290.033 801.833 291.983 800.955 293.421 799.393C294.859 797.83 295.667 795.71 295.667 793.5V751.833C295.667 749.623 294.859 747.504 293.421 745.941C291.983 744.378 290.033 743.5 288 743.5H257.717C256.434 743.514 255.17 743.178 254.038 742.522C252.906 741.867 251.944 740.914 251.238 739.75L248.133 734.75C247.435 733.598 246.485 732.652 245.368 731.997C244.25 731.343 243.001 731 241.732 731H226.667C224.633 731 222.683 731.878 221.246 733.441C219.808 735.004 219 737.123 219 739.333V793.5C219 795.71 219.808 797.83 221.246 799.393C222.683 800.955 224.633 801.833 226.667 801.833H288Z" stroke="#94A3B8" stroke-width="2" stroke-linecap="round" stroke-linejoin="round"/>
<path d="M1169 553.667H1148C1146.76 553.667 1145.58 554.158 1144.7 555.033C1143.82 555.909 1143.33 557.096 1143.33 558.333V595.667C1143.33 596.904 1143.82 598.091 1144.7 598.966C1145.58 599.842 1146.76 600.333 1148 600.333H1176C1177.24 600.333 1178.42 599.842 1179.3 598.966C1180.17 598.091 1180.67 596.904 1180.67 595.667V565.333L1169 553.667Z" stroke="#94A3B8" stroke-width="2" stroke-linecap="round" stroke-linejoin="round"/>
<path d="M1166.67 553.667V563C1166.67 564.238 1167.16 565.425 1168.03 566.3C1168.91 567.175 1170.1 567.667 1171.33 567.667H1180.67" stroke="#94A3B8" stroke-width="2" stroke-linecap="round" stroke-linejoin="round"/>
<path d="M1157.33 581.667C1159.91 581.667 1162 579.577 1162 577C1162 574.423 1159.91 572.333 1157.33 572.333C1154.76 572.333 1152.67 574.423 1152.67 577C1152.67 579.577 1154.76 581.667 1157.33 581.667Z" stroke="#94A3B8" stroke-width="2" stroke-linecap="round" stroke-linejoin="round"/>
<path d="M1180.67 588.667L1177.64 585.643C1176.59 584.588 1175.16 583.996 1173.67 583.996C1172.18 583.996 1170.75 584.588 1169.69 585.643L1155 600.333" stroke="#94A3B8" stroke-width="2" stroke-linecap="round" stroke-linejoin="round"/>
<path d="M1032 967V1009" stroke="#94A3B8" stroke-width="2" stroke-linecap="round" stroke-linejoin="round"/>
<path d="M1011 988H1053" stroke="#94A3B8" stroke-width="2" stroke-linecap="round" stroke-linejoin="round"/>
<path d="M1048.33 967H1015.67C1013.09 967 1011 969.089 1011 971.667V1004.33C1011 1006.91 1013.09 1009 1015.67 1009H1048.33C1050.91 1009 1053 1006.91 1053 1004.33V971.667C1053 969.089 1050.91 967 1048.33 967Z" stroke="#94A3B8" stroke-width="2" stroke-linecap="round" stroke-linejoin="round"/>
<path d="M165 376.667H144C142.762 376.667 141.575 377.158 140.7 378.033C139.825 378.909 139.333 380.096 139.333 381.333V418.667C139.333 419.904 139.825 421.091 140.7 421.966C141.575 422.842 142.762 423.333 144 423.333H172C173.237 423.333 174.424 422.842 175.3 421.966C176.175 421.091 176.666 419.904 176.666 418.667V388.333L165 376.667Z" stroke="#94A3B8" stroke-width="2" stroke-linecap="round" stroke-linejoin="round"/>
<path d="M162.667 376.667V386C162.667 387.238 163.159 388.425 164.034 389.3C164.909 390.175 166.096 390.667 167.334 390.667H176.667" stroke="#94A3B8" stroke-width="2" stroke-linecap="round" stroke-linejoin="round"/>
<path d="M153.334 400C152.715 400 152.121 400.246 151.684 400.683C151.246 401.121 151 401.714 151 402.333V404.667C151 405.286 150.754 405.879 150.317 406.317C149.879 406.754 149.286 407 148.667 407C149.286 407 149.879 407.246 150.317 407.683C150.754 408.121 151 408.714 151 409.333V411.667C151 412.286 151.246 412.879 151.684 413.317C152.121 413.754 152.715 414 153.334 414" stroke="#94A3B8" stroke-width="2" stroke-linecap="round" stroke-linejoin="round"/>
<path d="M162.667 414C163.286 414 163.879 413.754 164.317 413.317C164.754 412.879 165 412.286 165 411.667V409.333C165 408.714 165.246 408.121 165.684 407.683C166.121 407.246 166.715 407 167.334 407C166.715 407 166.121 406.754 165.684 406.317C165.246 405.879 165 405.286 165 404.667V402.333C165 401.714 164.754 401.121 164.317 400.683C163.879 400.246 163.286 400 162.667 400" stroke="#94A3B8" stroke-width="2" stroke-linecap="round" stroke-linejoin="round"/>
<path d="M257 978.667C268.598 978.667 278 975.533 278 971.667C278 967.801 268.598 964.667 257 964.667C245.402 964.667 236 967.801 236 971.667C236 975.533 245.402 978.667 257 978.667Z" stroke="#94A3B8" stroke-width="2" stroke-linecap="round" stroke-linejoin="round"/>
<path d="M236 971.667V1004.33C235.987 1005.46 236.784 1006.56 238.323 1007.56C239.862 1008.56 242.098 1009.42 244.843 1010.07C247.588 1010.72 250.761 1011.14 254.095 1011.29C257.429 1011.45 260.826 1011.33 264 1010.96" stroke="#94A3B8" stroke-width="2" stroke-linecap="round" stroke-linejoin="round"/>
<path d="M278 971.667V978.667" stroke="#94A3B8" stroke-width="2" stroke-linecap="round" stroke-linejoin="round"/>
<path d="M278 988L271 999.667H280.333L273.333 1011.33" stroke="#94A3B8" stroke-width="2" stroke-linecap="round" stroke-linejoin="round"/>
<path d="M236 988C236.003 989.091 236.772 990.166 238.243 991.141C239.715 992.115 241.85 992.961 244.477 993.612C247.104 994.262 250.151 994.699 253.374 994.888C256.598 995.076 259.909 995.011 263.043 994.697" stroke="#94A3B8" stroke-width="2" stroke-linecap="round" stroke-linejoin="round"/>
<path d="M746.604 621.973C746.748 643.718 746.748 644.059 747.906 646.954C749.305 650.645 752.778 654.562 755.913 655.982C758.855 657.288 767.537 657.458 771.492 656.266L774 655.528V652.121C774 649.169 773.904 648.771 773.18 649.055C771.396 649.907 764.884 650.645 762.279 650.304C758.373 649.85 756.009 648.26 754.369 645.024C753.067 642.412 753.019 641.901 752.826 633.612L752.681 624.982H757.311H761.942V621.007V617.033H757.36H752.778V608.517V600H749.642H746.459L746.604 621.973Z" fill="#94A3B8" stroke="#94A3B8" stroke-width="3"/>
<path d="M735.221 603.918C734.69 604.769 733.677 605.961 732.954 606.586L731.651 607.608L733.002 608.63C733.774 609.141 734.787 610.277 735.221 611.128L736.089 612.604L737.053 611.071C737.536 610.22 738.645 609.084 739.417 608.516L740.816 607.494L739.32 606.472C738.5 605.905 737.825 605.28 737.825 605.11C737.825 604.94 737.439 604.258 736.957 603.577L736.137 602.271L735.221 603.918Z" fill="#94A3B8" stroke="#94A3B8" stroke-width="3"/>
<path d="M501 630.375V656.777H504.135H507.27L507.367 640.766L507.511 624.698L509.007 628.104C511.274 633.157 516.869 642.866 520.149 647.408C522.994 651.383 522.994 651.383 525.695 651.553L528.396 651.723L530.856 648.43C534.184 644.059 538.718 636.451 541.854 629.978L544.41 624.755V640.766V656.777H547.545H550.68V630.375V603.974H547.593H544.555L542.963 609.198C542.143 612.093 540.262 617.26 538.815 620.723C536.017 627.309 528.927 640.255 526.901 642.469L525.695 643.832L523.621 640.766C518.075 632.533 510.936 617.317 508.573 608.516L507.415 604.258L504.183 604.088L501 603.917V630.375Z" fill="#94A3B8" stroke="#94A3B8" stroke-width="3"/>
<path d="M577.208 616.465C570.07 617.317 565.15 619.872 561.291 624.811C558.205 628.786 557.24 632.192 557.529 637.984C558.012 647.352 563.173 653.597 572.867 656.55C576.871 657.742 587 657.401 591.823 655.925L595.055 654.96V650.986C595.055 647.181 595.006 647.068 593.994 647.465C587.434 649.907 580.488 650.588 575.231 649.169C568.768 647.465 565.005 643.945 564.33 638.892L564.041 636.791L566.404 638.211C567.707 639.006 570.359 640.198 572.289 640.879C575.327 641.958 576.63 642.128 581.935 641.901C587.386 641.731 588.399 641.504 590.955 640.084C594.476 638.211 595.875 636.735 597.032 633.782C598.045 631.17 598.142 629.524 597.466 626.572C595.778 619.588 587.289 615.33 577.208 616.465ZM586.421 624.755C592.884 626.969 592.836 632.249 586.325 634.009C583.479 634.804 577.835 634.804 574.7 634.009C571.613 633.214 566.115 630.716 566.115 630.092C566.115 628.786 572.144 625.039 575.231 624.414C578.993 623.676 583.672 623.789 586.421 624.755Z" fill="#94A3B8" stroke="#94A3B8" stroke-width="3"/>
<path d="M613.528 617.317C609.766 618.282 605.908 620.667 604.557 622.938C603.11 625.322 603.11 629.921 604.509 632.192C607.065 636.28 611.503 638.097 623.03 639.744C627.42 640.368 631.712 641.106 632.629 641.447C635.185 642.299 636.632 643.605 636.439 644.967C635.716 650.702 617.339 651.724 603.11 646.784C602.338 646.5 602.242 646.841 602.387 650.02L602.531 653.54L605.184 654.619C610.393 656.72 616.037 657.458 623.995 657.174C632.581 656.89 636.487 655.755 639.623 652.746C641.841 650.531 642.806 648.09 642.806 644.57C642.806 637.359 638.754 634.804 623.513 632.533C612.757 630.943 610.731 630.205 610.731 627.537C610.731 626.004 610.972 625.72 613.384 624.755C616.905 623.278 628.867 623.165 635.33 624.584C637.742 625.095 639.816 625.55 640.057 625.55C640.25 625.55 640.394 624.13 640.394 622.427V619.361L638.369 618.68C631.375 616.465 619.413 615.841 613.528 617.317Z" fill="#94A3B8" stroke="#94A3B8" stroke-width="3"/>
<path d="M670.058 617.203C664.945 619.19 659.446 624.357 656.842 629.524L655.588 632.079L655.443 624.811L655.298 617.601H652.211H649.076V645.705V673.81H652.163H655.202L655.491 662.341C655.636 655.982 656.022 649.623 656.311 648.147L656.89 645.421L659.35 648.658C664.27 655.017 669.431 657.628 676.231 657.231C679.318 657.061 680.862 656.663 683.225 655.414C693.837 649.68 696.538 632.93 688.483 622.881C684.962 618.452 681.778 616.806 676.376 616.636C673.675 616.522 671.263 616.749 670.058 617.203ZM679.511 624.698C685.058 627.026 687.856 633.896 686.167 641.163C685.396 644.57 681.73 648.487 678.498 649.396C672.325 651.156 665.186 647.692 661.134 641.05C659.253 637.984 659.398 637.075 662.292 632.59C666.874 625.436 673.772 622.313 679.511 624.698Z" fill="#94A3B8" stroke="#94A3B8" stroke-width="3"/>
<path d="M715.493 617.09C713.033 617.771 709.415 620.042 707.583 622.086L705.991 623.789V620.667V617.601H702.615H699.238L699.335 637.018L699.479 656.493H702.615H705.75L705.991 644.797C706.232 633.612 706.28 633.044 707.39 631.114C708.788 628.786 712.165 625.947 714.914 624.925C717.085 624.13 723.934 623.903 727.117 624.584L729.191 624.982L729.046 621.178C728.902 617.43 728.853 617.317 727.455 616.976C725.332 616.408 717.615 616.522 715.493 617.09Z" fill="#94A3B8" stroke="#94A3B8" stroke-width="3"/>
<path d="M733.002 637.189V656.777H736.137H739.272V637.189V617.601H736.137H733.002V637.189Z" fill="#94A3B8" stroke="#94A3B8" stroke-width="3"/>
</svg>
